<svg xmlns="http://www.w3.org/2000/svg" enable-background="new 0 0 32 32" viewBox="0 0 32 32"><path d="M29.3,15l-2.7-0.8l-2.5-3.4c-0.2-0.3-0.5-0.4-0.8-0.4h-1.7V9.6c0-0.6-0.5-1-1-1H6.7c-0.6,0-1,0.4-1,1v2h2v-1h11.9v9H14
	c-0.4-1.1-1.4-1.8-2.6-1.8s-2.2,0.8-2.6,1.8h-1v-1h-2v2c0,0.5,0.4,1,1,1h2c0.4,1.1,1.4,1.8,2.6,1.8s2.2-0.8,2.6-1.8l8.2,0
	c0.4,1.1,1.4,1.8,2.6,1.8s2.2-0.8,2.6-1.8H29c0.6,0,1-0.4,1-1V16C30,15.6,29.7,15.2,29.3,15z M11.3,21.4c-0.4,0-0.8-0.4-0.8-0.8
	c0-0.5,0.4-0.8,0.8-0.8s0.8,0.4,0.8,0.8C12.1,21.1,11.8,21.4,11.3,21.4z M24.8,21.4c-0.4,0-0.8-0.4-0.8-0.8c0-0.5,0.4-0.8,0.8-0.8
	s0.8,0.4,0.8,0.8C25.6,21.1,25.2,21.4,24.8,21.4z M28,19.6h-0.6c-0.4-1.1-1.4-1.8-2.6-1.8s-2.2,0.8-2.6,1.8h-0.6v-7.2h1.2l1.2,1.7
	h-1c-0.6,0-1,0.4-1,1s0.4,1,1,1h2.9l2.2,0.7V19.6z M8.6,17.6H3c-0.6,0-1-0.4-1-1s0.4-1,1-1h5.6c0.6,0,1,0.4,1,1S9.2,17.6,8.6,17.6z
	 M3.8,13.6c0-0.6,0.4-1,1-1h5.6c0.6,0,1,0.4,1,1s-0.4,1-1,1H4.8C4.2,14.6,3.8,14.2,3.8,13.6z"/></svg>