<svg xmlns="http://www.w3.org/2000/svg" viewBox="0 0 64 64"><g data-name="Safe box"><path d="M48,26a4,4,0,1,1,4-4A4,4,0,0,1,48,26Zm0-6a2,2,0,1,0,2,2A2,2,0,0,0,48,20Z"/><path d="M47,28.5v-3a1,1,0,0,1,2,0v3A1,1,0,0,1,47,28.5Z"/><path d="M48 42a3 3 0 0 1-3-3V29a1 1 0 0 1 1-1h4a1 1 0 0 1 1 1V39A3 3 0 0 1 48 42zM47 30v9a1 1 0 0 0 2 0V30zM33 28H15.05A3.06 3.06 0 0 1 12 25v-3.9A3.06 3.06 0 0 1 15.05 18H33a3.06 3.06 0 0 1 3 3.05V25A3.06 3.06 0 0 1 33 28zm-17.9-8A1 1 0 0 0 14 21.05V25A1 1 0 0 0 15.05 26H33A1 1 0 0 0 34 25v-3.9A1 1 0 0 0 33 20zM15 36a3 3 0 1 1 3-3A3 3 0 0 1 15 36zm0-4a1 1 0 0 0 0 2A1 1 0 0 0 15 32zM24 36a3 3 0 1 1 3-3A3 3 0 0 1 24 36zm0-4a1 1 0 0 0 0 2A1 1 0 0 0 24 32zM33 36a3 3 0 1 1 3-3A3 3 0 0 1 33 36zm0-4a1 1 0 0 0 0 2A1 1 0 0 0 33 32zM15 44a3 3 0 1 1 3-3A3 3 0 0 1 15 44zm0-4a1 1 0 0 0 0 2A1 1 0 0 0 15 40zM24 44a3 3 0 1 1 3-3A3 3 0 0 1 24 44zm0-4a1 1 0 0 0 0 2A1 1 0 0 0 24 40zM33 44a3 3 0 1 1 3-3A3 3 0 0 1 33 44zm0-4a1 1 0 0 0 0 2A1 1 0 0 0 33 40z"/><path d="M54,55H10a7,7,0,0,1-7-7V10a7,7,0,0,1,7-7H54a7,7,0,0,1,7,7V48A7,7,0,0,1,54,55ZM10,5a5,5,0,0,0-5,5V48a5,5,0,0,0,5,5H54a5,5,0,0,0,5-5V10a5,5,0,0,0-5-5Z"/><path d="M7,26V25a1,1,0,0,1,2,0v1A1,1,0,0,1,7,26Z"/><path d="M52.85 51H11.15A4.15 4.15 0 0 1 7 46.85V30a1 1 0 0 1 2 0V46.85A2.15 2.15 0 0 0 11.15 49h41.7A2.15 2.15 0 0 0 55 46.85V11.15A2.15 2.15 0 0 0 52.85 9H11.15A2.15 2.15 0 0 0 9 11.15V21a1 1 0 0 1-2 0V11.15A4.15 4.15 0 0 1 11.15 7h41.7A4.15 4.15 0 0 1 57 11.15v35.7A4.15 4.15 0 0 1 52.85 51zM16 61H12a3 3 0 0 1-3-3V54a1 1 0 0 1 1-1h8a1 1 0 0 1 1 1v4A3 3 0 0 1 16 61zm-5-6v3a1 1 0 0 0 1 1h4a1 1 0 0 0 1-1V55zM52 61H48a3 3 0 0 1-3-3V54a1 1 0 0 1 1-1h8a1 1 0 0 1 1 1v4A3 3 0 0 1 52 61zm-5-6v3a1 1 0 0 0 1 1h4a1 1 0 0 0 1-1V55z"/></g></svg>