<?xml version="1.0" encoding="UTF-8" standalone="no"?> <svg id="_1_-_10" data-name="1 - 10" xmlns="http://www.w3.org/2000/svg" viewBox="0 0 48 48"><title>Diet</title><g id="Diet_Slim" data-name="Diet Slim"><path d="M9.707,17.293l-2-2a1,1,0,0,0-1.414,1.414L6.586,17H3a1,1,0,0,0,0,2H6.586l-.293.293a1,1,0,1,0,1.414,1.414l2-2A1,1,0,0,0,9.707,17.293Z"/><path d="M45,17H41.414l.293-.293a1,1,0,0,0-1.414-1.414l-2,2a1,1,0,0,0,0,1.414l2,2a1,1,0,0,0,1.414-1.414L41.414,19H45a1,1,0,0,0,0-2Z"/><path d="M36.971,6.3a1,1,0,0,0-1.908-.6c-3.235,10.316-1.564,14.006.052,17.574A19.178,19.178,0,0,1,36.738,28H11.262a19.178,19.178,0,0,1,1.623-4.725c1.616-3.568,3.287-7.258.053-17.574a1,1,0,0,0-1.909.6c3.006,9.588,1.563,12.776.034,16.151A18.428,18.428,0,0,0,9,31c0,7.152,2,11.272,2.088,11.444a1,1,0,0,0,.9.556H36.017a1,1,0,0,0,.895-.556C37,42.272,39,38.152,39,31a18.441,18.441,0,0,0-2.062-8.55C35.408,19.075,33.965,15.887,36.971,6.3ZM35.355,41H25V36a1,1,0,0,0-2,0v5H12.645A28.161,28.161,0,0,1,11,31c0-.352.016-.677.033-1H36.967c.017.323.033.648.033,1A28.14,28.14,0,0,1,35.355,41Z"/><path d="M24,22a1,1,0,0,0,1-1V18a1,1,0,0,0-2,0v3A1,1,0,0,0,24,22Z"/></g></svg>