<svg xmlns="http://www.w3.org/2000/svg" viewBox="0 0 512 512"><defs><style>.cls-1{font-size:64px;font-family:DBHelvethaicaX-MedCond, DBHelvethaicaX MedCond;}.cls-2{letter-spacing:-0.08em;}</style></defs><g id="text"><text class="cls-1" transform="translate(151.81 565.44)">BRE<tspan class="cls-2" x="100.61" y="0">A</tspan><tspan x="134.85" y="0">TH</tspan></text></g><g id="outline_create" data-name="outline create"><path d="M152.94,359.9l.63,16A140.05,140.05,0,0,0,282.71,197.82l-15.4,4.36A124,124,0,0,1,152.94,359.9Z"/><path d="M56.15,356.12A48,48,0,0,1,104,312a48.46,48.46,0,0,1,10.19,1.09A47.76,47.76,0,0,1,143,332l1.21,5.64a8,8,0,0,0,8.13,6.32,108,108,0,0,0,93.85-153,94.48,94.48,0,0,0,12-2.57L253.82,173A80,80,0,0,1,152,96V48H136V96a96.11,96.11,0,0,0,92.77,95.94,92,92,0,0,1-70.41,135.48l-.09-.4a8,8,0,0,0-1.19-2.8A64,64,0,0,0,40.49,352,95.47,95.47,0,0,0,16,416v80H32V416a79.59,79.59,0,0,1,22-55A8,8,0,0,0,56.15,356.12Z"/><path d="M342.65,50.68a116.78,116.78,0,0,0-27.87,8l6.53,14.61a101.28,101.28,0,0,1,24-6.88Z"/><path d="M141.35,393.24l-8.56,13.52A215,215,0,0,0,248,440c119.1,0,216-96.9,216-216V136a88.1,88.1,0,0,0-88-88c-2.75,0-5.54,0-8.31.16l.62,16c2.56-.1,5.15-.15,7.69-.15a72.08,72.08,0,0,1,72,72v88c0,110.28-89.72,200-200,200A199,199,0,0,1,141.35,393.24Z"/><path d="M288,96a56,56,0,0,1-7,27.08l14,7.76A72,72,0,0,0,304,96c0-7,1.4-12.4,8.35-17.59l-9.57-12.82C289.68,75.36,288,87,288,96Z"/><path d="M376,16c-16.44,0-47.95,1.75-74.26,13.5C271.82,42.86,256,65.85,256,96a24,24,0,0,1-48,0V48H192V96a40,40,0,0,0,80,0c0-57.76,72.73-64,104-64A104.11,104.11,0,0,1,480,136v88A232,232,0,0,1,108.79,409.6,8,8,0,0,0,104,408a48.08,48.08,0,0,1-30.9-11.28,8,8,0,0,0-11.84,1.73A31.92,31.92,0,0,0,56,416v80H72V416c0-.19,0-.38,0-.57a64.13,64.13,0,0,0,29.24,8.51A248,248,0,0,0,496,224V136A120.13,120.13,0,0,0,376,16Z"/></g></svg>